<?xml version="1.0" standalone="no"?>
<!DOCTYPE svg PUBLIC "-//W3C//DTD SVG 20010904//EN"
 "http://www.w3.org/TR/2001/REC-SVG-20010904/DTD/svg10.dtd">
<svg version="1.0" xmlns="http://www.w3.org/2000/svg"
 width="146.000000pt" height="146.000000pt" viewBox="0 0 146.000000 146.000000"
 preserveAspectRatio="xMidYMid meet">
<metadata>
Created by potrace 1.14, written by Peter Selinger 2001-2017
</metadata>
<g transform="translate(0.000000,146.000000) scale(0.100000,-0.100000)"
fill="#000000" stroke="none">
<path d="M657 1444 c-2 -2 -20 -6 -40 -8 -135 -18 -240 -91 -309 -219 -27 -49
-36 -86 -37 -158 -1 -30 -5 -38 -24 -43 -12 -3 -38 -21 -56 -40 -30 -31 -34
-41 -32 -83 2 -66 20 -120 51 -153 20 -22 24 -33 17 -45 -12 -22 -11 -83 2
-116 5 -15 29 -48 54 -73 38 -41 44 -52 40 -83 -2 -19 2 -41 8 -49 9 -11 9
-14 0 -14 -8 0 -7 -5 3 -15 8 -8 17 -15 20 -15 14 0 47 -43 43 -54 -3 -7 -31
-26 -62 -41 -80 -41 -86 -57 -33 -96 122 -88 258 -132 413 -133 61 0 126 2
145 5 50 9 120 31 120 39 0 3 -15 21 -34 39 l-35 34 27 33 26 33 27 -20 c15
-11 30 -15 33 -10 4 5 2 11 -3 13 -5 1 -12 18 -16 35 -6 28 -3 34 17 42 50 20
64 24 77 22 7 -1 10 2 7 7 -3 5 1 15 9 22 12 10 14 29 9 94 -3 44 -7 83 -10
85 -2 2 6 15 18 28 28 30 37 127 16 170 -8 17 -11 37 -7 49 36 96 70 219 73
266 3 49 1 58 -15 63 -10 4 -29 -1 -41 -9 -12 -9 -25 -16 -29 -16 -9 0 -19 34
-25 85 -19 157 -100 266 -229 310 -43 14 -208 29 -218 19z"/>
</g>
</svg>
