<?xml version="1.0" encoding="UTF-8"?>
<!DOCTYPE svg PUBLIC "-//W3C//DTD SVG 1.1//EN" "http://www.w3.org/Graphics/SVG/1.1/DTD/svg11.dtd">
<svg version="1.1" xmlns="http://www.w3.org/2000/svg" xmlns:xlink="http://www.w3.org/1999/xlink" x="0" y="0" width="48" height="48" viewBox="0, 0, 48, 48">
  <g id="Layer_1">
    <path d="M45.5,24 C45.5,25.9 43.5,27.49 43.06,29.19 C42.62,30.89 43.73,33.37 42.89,34.93 C42.05,36.49 39.45,36.93 38.18,38.18 C36.91,39.43 36.55,42 34.93,42.89 C33.31,43.78 31.02,42.63 29.19,43.06 C27.36,43.49 25.9,45.5 24,45.5 C22.1,45.5 20.51,43.5 18.81,43.06 C17.11,42.62 14.63,43.73 13.07,42.89 C11.51,42.05 11.07,39.45 9.82,38.18 C8.57,36.91 6,36.55 5.11,34.93 C4.22,33.31 5.37,31.02 4.94,29.19 C4.51,27.36 2.5,25.9 2.5,24 C2.5,22.1 4.55,20.51 4.94,18.81 C5.33,17.11 4.27,14.63 5.11,13.07 C5.95,11.51 8.55,11.07 9.82,9.82 C11.09,8.57 11.45,6 13.07,5.11 C14.69,4.22 16.98,5.37 18.81,4.94 C20.64,4.51 22.1,2.5 24,2.5 C25.9,2.5 27.49,4.55 29.19,4.94 C30.89,5.33 33.37,4.27 34.93,5.11 C36.49,5.95 36.93,8.55 38.18,9.82 C39.43,11.09 42.02,11.45 42.89,13.07 C43.76,14.69 42.63,16.98 43.06,18.81 C43.49,20.64 45.5,22.1 45.5,24 z" fill-opacity="0" stroke="#906C40" stroke-width="3.91" stroke-linecap="round" stroke-linejoin="round"/>
    <path d="M29.86,16.18 L18.14,31.82" fill-opacity="0" stroke="#906C40" stroke-width="3.91" stroke-linecap="round" stroke-linejoin="round"/>
    <path d="M31.82,30.35 C31.82,31.162 31.162,31.82 30.35,31.82 C29.538,31.82 28.88,31.162 28.88,30.35 C28.88,29.538 29.538,28.88 30.35,28.88 C31.162,28.88 31.82,29.538 31.82,30.35 z" fill-opacity="0" stroke="#906C40" stroke-width="3.91" stroke-linecap="round" stroke-linejoin="round"/>
    <path d="M19.12,17.65 C19.12,18.462 18.462,19.12 17.65,19.12 C16.838,19.12 16.18,18.462 16.18,17.65 C16.18,16.838 16.838,16.18 17.65,16.18 C18.462,16.18 19.12,16.838 19.12,17.65 z" fill-opacity="0" stroke="#906C40" stroke-width="3.91" stroke-linecap="round" stroke-linejoin="round"/>
  </g>
</svg>
